# xmcd
#
# Track frame offsets: 
#        150
#        10354
#        21000
#        29205
#        40692
#        50541
#        60390
#        71014
#        81034
#        90949
#        101437
#        114459
#        126159
#        138011
#        151589
#        161355
#        172591
#        183505
#        194396
#        204737
#
# Disc length: 2881 seconds
#
# Revision: 2
# Processed by: cddbd v1.5.2PL0 Copyright (c) Steve Scherf et al.
# Submitted via: ExactAudioCopyFreeDBPlugin 1.0
#
DISCID=f60b3f14
DTITLE=Various Artist - Such a Much - R&B Girls of the 50s and 60s
DYEAR=2014
DGENRE=R&B
TTITLE0=Lucille Brown - Come on and Love me
TTITLE1=Blanche Thomas - You Ain't So Such A Much
TTITLE2=LaVern Baker  - Voodoo Voodoo
TTITLE3=Varetta Willard  - That's Why  I  Cry
TTITLE4=Marie Knight  - I Thought I Told You Not To  Tell Them
TTITLE5=Carol Fran  - Knock Knock
TTITLE6=Annie Laurie  - Nobody's Gonna Hurt you
TTITLE7=Paula Grimes - You Move Me So
TTITLE8=Mary Ann Fisher  - Put On My  Shoes
TTITLE9=Carrie Grant - Mish Mash
TTITLE10=Big Maybelle - I've Got A Feelin'
TTITLE11=Ann Cole - Easy Easy Baby
TTITLE12=Little Esther - If It's News to you
TTITLE13=Wynona Carr - Please Mr. Jailer
TTITLE14=Doris Payne - You Better Mind
TTITLE15=Jo Ann Henderson  - Baby Please Don't Go
TTITLE16=Etta James - Nobody Loves You Like Me
TTITLE17=Ruth Brown - Sure 'Nuff
TTITLE18=LaVern Baker - Tiny Tim
TTITLE19=Fay Simmons - And the Angels Sing
EXTD=
EXTT0=
EXTT1=
EXTT2=
EXTT3=
EXTT4=
EXTT5=
EXTT6=
EXTT7=
EXTT8=
EXTT9=
EXTT10=
EXTT11=
EXTT12=
EXTT13=
EXTT14=
EXTT15=
EXTT16=
EXTT17=
EXTT18=
EXTT19=
PLAYORDER=
